<?xml version="1.0" encoding="utf-8"?>
<!-- Generator: Adobe Illustrator 16.0.0, SVG Export Plug-In . SVG Version: 6.00 Build 0)  -->
<!DOCTYPE svg PUBLIC "-//W3C//DTD SVG 1.1//EN" "http://www.w3.org/Graphics/SVG/1.1/DTD/svg11.dtd">
<svg version="1.1" id="Ñëîé_1" xmlns="http://www.w3.org/2000/svg" xmlns:xlink="http://www.w3.org/1999/xlink" x="0px" y="0px"
	 width="157.5px" height="262px" viewBox="0 0 157.5 262" enable-background="new 0 0 157.5 262" xml:space="preserve">
<g>
	<polygon points="20.449,51.051 42.198,52.432 49.474,23.906 	"/>
	<polygon points="60.058,49.53 60.061,49.53 72.769,47.162 54.942,22.134 47.351,51.898 60.055,49.531 	"/>
	<polygon points="77.768,45.802 97.552,36.663 60.685,21.815 	"/>
	<path d="M145.5,0H12C5.373,0,0,5.373,0,12v238c0,6.627,5.373,12,12,12h133.5c6.627,0,12-5.373,12-12V12
		C157.5,5.373,152.127,0,145.5,0z M145.324,10.124l-27.23,67.483h13.246c0.807,0,1.562,0.401,2.014,1.07s0.542,1.519,0.241,2.268
		l-13.033,32.429c-2.47,6.145-1.032,13.095,3.661,17.706c8.814,8.657,13.668,20.227,13.668,32.578
		c0,12.598-5.019,24.329-14.132,33.032c-7.996,7.637-18.196,12.011-29.107,12.573v16.468c11.979,9.332,25.506,16.034,40.234,19.91
		c1.182,0.311,1.949,1.451,1.792,2.663s-1.188,2.119-2.41,2.119H50.175c-1.222,0-2.254-0.907-2.41-2.119
		c-0.157-1.212,0.61-2.352,1.792-2.663c14.729-3.877,28.256-10.578,40.233-19.91v-16.471c-23.193-1.212-42.141-20.256-43.191-43.485
		c-0.587-12.996,4.395-25.658,13.668-34.74c4.669-4.573,6.07-11.549,3.568-17.773L50.848,80.944
		c-0.301-0.749-0.211-1.599,0.241-2.268s1.207-1.07,2.014-1.07h9.722l-4.264-22.852L46.026,57.09l-1.92,7.528
		c-0.28,1.099-1.269,1.831-2.354,1.831c-0.198,0-0.4-0.024-0.603-0.076c-1.301-0.332-2.086-1.656-1.754-2.957l1.579-6.191
		L15.57,55.613l-6.723,6.288c-0.468,0.438-1.064,0.655-1.659,0.655c-0.649,0-1.298-0.258-1.776-0.771
		c-0.917-0.98-0.865-2.519,0.115-3.436l7.489-7.004l38.232-35.757l-1.702-9.133c-0.246-1.32,0.625-2.589,1.945-2.835
		c1.314-0.244,2.588,0.625,2.834,1.945l1.701,9.132l58.068,23.386c1.245,0.502,1.848,1.918,1.347,3.163
		c-0.502,1.246-1.917,1.848-3.163,1.347l-8.534-3.437L80.637,49.832l3.703,5.199c0.779,1.093,0.524,2.611-0.569,3.39
		c-1.094,0.779-2.611,0.523-3.39-0.57l-4.503-6.323l-12.539,2.336l4.431,23.743h46.334l27.784-68.852
		c0.38-0.943,1.46-1.401,2.407-1.023C145.244,8.11,145.705,9.181,145.324,10.124z"/>
</g>
</svg>
