<?xml version="1.0" encoding="utf-8"?>
<!-- Generator: Adobe Illustrator 16.0.0, SVG Export Plug-In . SVG Version: 6.00 Build 0)  -->
<!DOCTYPE svg PUBLIC "-//W3C//DTD SVG 1.1//EN" "http://www.w3.org/Graphics/SVG/1.1/DTD/svg11.dtd">
<svg version="1.1" id="Ñëîé_1" xmlns="http://www.w3.org/2000/svg" xmlns:xlink="http://www.w3.org/1999/xlink" x="0px" y="0px"
	 width="230.152px" height="330.272px" viewBox="0 0 230.152 330.272" enable-background="new 0 0 230.152 330.272"
	 xml:space="preserve">
<g>
	<polygon points="40.214,65.102 61.963,66.482 69.238,37.957 	"/>
	<polygon points="79.822,63.581 79.825,63.581 92.533,61.212 74.707,36.184 67.115,65.949 79.819,63.582 	"/>
	<polygon points="97.532,59.853 117.316,50.713 80.449,35.865 	"/>
	<path d="M165.265,14.05h-133.5c-6.627,0-12,5.373-12,12v238c0,6.627,5.373,12,12,12h133.5c6.627,0,12-5.373,12-12v-238
		C177.265,19.423,171.892,14.05,165.265,14.05z M165.089,24.174l-27.23,67.483h13.246c0.807,0,1.562,0.401,2.014,1.07
		s0.542,1.519,0.241,2.268l-13.033,32.429c-2.47,6.145-1.032,13.095,3.661,17.706c8.814,8.657,13.668,20.227,13.668,32.578
		c0,12.598-5.019,24.329-14.132,33.032c-7.996,7.637-18.196,12.011-29.107,12.573v16.468c11.979,9.332,25.506,16.034,40.234,19.91
		c1.182,0.311,1.949,1.451,1.792,2.663s-1.188,2.119-2.41,2.119H69.939c-1.222,0-2.254-0.907-2.41-2.119
		c-0.157-1.212,0.61-2.352,1.792-2.663c14.729-3.877,28.256-10.578,40.233-19.91v-16.471c-23.193-1.212-42.141-20.256-43.191-43.485
		c-0.587-12.996,4.395-25.658,13.668-34.74c4.669-4.573,6.07-11.549,3.568-17.773L70.612,94.995
		c-0.301-0.749-0.211-1.599,0.241-2.268s1.207-1.07,2.014-1.07h9.722l-4.264-22.852L65.791,71.14l-1.92,7.528
		c-0.28,1.099-1.269,1.831-2.354,1.831c-0.198,0-0.4-0.024-0.603-0.076c-1.301-0.332-2.086-1.656-1.754-2.957l1.579-6.191
		l-25.405-1.612l-6.723,6.288c-0.468,0.438-1.064,0.655-1.659,0.655c-0.649,0-1.298-0.258-1.776-0.771
		c-0.917-0.98-0.865-2.519,0.115-3.436l7.489-7.004l38.232-35.757l-1.702-9.133c-0.246-1.32,0.625-2.589,1.945-2.835
		c1.314-0.244,2.588,0.625,2.834,1.945l1.701,9.132l58.068,23.386c1.245,0.502,1.848,1.918,1.347,3.163
		c-0.502,1.246-1.917,1.848-3.163,1.347l-8.534-3.437l-23.108,10.675l3.703,5.199c0.779,1.093,0.524,2.611-0.569,3.39
		c-1.094,0.779-2.611,0.523-3.39-0.57l-4.503-6.323l-12.539,2.336l4.431,23.743h46.334l27.784-68.852
		c0.38-0.943,1.46-1.401,2.407-1.023C165.009,22.161,165.47,23.231,165.089,24.174z"/>
</g>
</svg>
